# xmcd
#
# Track frame offsets: 
#        150
#        11723
#        26578
#        38981
#        56450
#        74394
#        90027
#        103681
#        118344
#        130522
#        143927
#
# Disc length: 2103 seconds
#
# Revision: 0
# Processed by: cddbd v1.5.2PL0 Copyright (c) Steve Scherf et al.
# Submitted via: ExactAudioCopy v1.0b4
#
DISCID=8f08350b
DTITLE=Leslie West - Mountain
DYEAR=1969
DGENRE=Blues Rock
TTITLE0=Blood Of The Sun
TTITLE1=Long Red
TTITLE2=Better Watch Out
TTITLE3=Blind Man
TTITLE4=Baby, I'm Down
TTITLE5=Dreams Of Milk and Honey
TTITLE6=Storyteller Man
TTITLE7=This Wheel's On Fire
TTITLE8=Lookto The Wind
TTITLE9=Southbound Train
TTITLE10=Because You Are My Friend
EXTD=
EXTT0=
EXTT1=
EXTT2=
EXTT3=
EXTT4=
EXTT5=
EXTT6=
EXTT7=
EXTT8=
EXTT9=
EXTT10=
PLAYORDER=
